<svg width="256" height="256" viewBox="0 0 256 256" fill="none" xmlns="http://www.w3.org/2000/svg">
<path d="M230.4 34.1333C237.19 34.1333 243.701 36.8304 248.502 41.6314C253.303 46.4323 256 52.9438 256 59.7333V85.3333H0V59.7333C0 52.9438 2.69714 46.4323 7.49807 41.6314C12.299 36.8304 18.8105 34.1333 25.6 34.1333H230.4Z" fill="#2EC5CE"/>
<path fill-rule="evenodd" clip-rule="evenodd" d="M0 102.4V196.267C0 203.056 2.69714 209.568 7.49807 214.369C12.299 219.17 18.8105 221.867 25.6 221.867H230.4C237.19 221.867 243.701 219.17 248.502 214.369C253.303 209.568 256 203.056 256 196.267V102.4H0ZM34.1333 170.667H136.533V153.6H34.1333V170.667ZM221.867 170.667H170.667V153.6H221.867V170.667Z" fill="#2EC5CE"/>
</svg>
