<svg width="256" height="256" viewBox="0 0 256 256" fill="none" xmlns="http://www.w3.org/2000/svg">
<path d="M224 128C224 146.987 218.37 165.548 207.821 181.335C197.273 197.122 182.279 209.426 164.738 216.692C147.196 223.958 127.894 225.86 109.271 222.155C90.6492 218.451 73.5436 209.308 60.1178 195.882C46.692 182.456 37.5488 165.351 33.8447 146.729C30.1405 128.106 32.0416 108.804 39.3076 91.2624C46.5736 73.7207 58.8782 58.7275 74.6653 48.1789C90.4524 37.6303 109.013 32 128 32C153.461 32 177.879 42.1143 195.882 60.1177C213.886 78.1212 224 102.539 224 128Z" fill="#A8D7E8"/>
<path d="M128 24C107.431 24 87.3235 30.0995 70.2207 41.5272C53.118 52.9548 39.7881 69.1974 31.9166 88.2009C24.0451 107.204 21.9855 128.115 25.9984 148.289C30.0112 168.463 39.9163 186.994 54.4609 201.539C69.0056 216.084 87.5366 225.989 107.711 230.002C127.885 234.015 148.796 231.955 167.799 224.083C186.803 216.212 203.045 202.882 214.473 185.779C225.901 168.677 232 148.569 232 128C231.971 100.426 221.004 73.9905 201.507 54.4931C182.01 34.9956 155.574 24.0291 128 24ZM128 216C110.595 216 93.5814 210.839 79.1099 201.169C64.6383 191.5 53.3592 177.756 46.6986 161.676C40.0381 145.596 38.2954 127.902 41.6909 110.832C45.0864 93.7617 53.4676 78.0816 65.7747 65.7746C78.0817 53.4676 93.7618 45.0864 110.832 41.6909C127.902 38.2954 145.596 40.0381 161.676 46.6986C177.756 53.3591 191.5 64.6383 201.169 79.1098C210.839 93.5813 216 110.595 216 128C215.974 151.331 206.694 173.699 190.196 190.196C173.699 206.694 151.331 215.974 128 216ZM192 128C192 130.122 191.157 132.157 189.657 133.657C188.157 135.157 186.122 136 184 136H128C125.878 136 123.843 135.157 122.343 133.657C120.843 132.157 120 130.122 120 128V72C120 69.8783 120.843 67.8434 122.343 66.3431C123.843 64.8429 125.878 64 128 64C130.122 64 132.157 64.8429 133.657 66.3431C135.157 67.8434 136 69.8783 136 72V120H184C186.122 120 188.157 120.843 189.657 122.343C191.157 123.843 192 125.878 192 128Z" fill="#2EC5CE"/>
</svg>
