<svg width="256" height="256" viewBox="0 0 256 256" fill="none" xmlns="http://www.w3.org/2000/svg">
<path opacity="0.5" fill-rule="evenodd" clip-rule="evenodd" d="M234.667 128C234.667 186.912 186.912 234.667 128 234.667C69.0879 234.667 21.3333 186.912 21.3333 128C21.3333 69.0879 69.0879 21.3333 128 21.3333C186.912 21.3333 234.667 69.0879 234.667 128Z" fill="#FF99D6"/>
<path fill-rule="evenodd" clip-rule="evenodd" d="M128 56C130.122 56 132.157 56.8429 133.657 58.3431C135.157 59.8434 136 61.8783 136 64V67.3813C153.387 70.496 168 83.5627 168 101.333C168 103.455 167.157 105.49 165.657 106.99C164.157 108.49 162.122 109.333 160 109.333C157.878 109.333 155.843 108.49 154.343 106.99C152.843 105.49 152 103.455 152 101.333C152 94.1013 145.984 86.432 136 83.7013V120.715C153.387 123.829 168 136.896 168 154.667C168 172.437 153.387 185.504 136 188.619V192C136 194.122 135.157 196.157 133.657 197.657C132.157 199.157 130.122 200 128 200C125.878 200 123.843 199.157 122.343 197.657C120.843 196.157 120 194.122 120 192V188.619C102.613 185.504 88 172.437 88 154.667C88 152.545 88.8429 150.51 90.3431 149.01C91.8434 147.51 93.8783 146.667 96 146.667C98.1217 146.667 100.157 147.51 101.657 149.01C103.157 150.51 104 152.545 104 154.667C104 161.899 110.016 169.568 120 172.288V135.285C102.613 132.171 88 119.104 88 101.333C88 83.5627 102.613 70.496 120 67.3813V64C120 61.8783 120.843 59.8434 122.343 58.3431C123.843 56.8429 125.878 56 128 56ZM120 83.7013C110.016 86.432 104 94.1013 104 101.333C104 108.565 110.016 116.235 120 118.955V83.7013ZM152 154.667C152 147.435 145.984 139.765 136 137.045V172.288C145.984 169.568 152 161.899 152 154.667Z" fill="#2EC5CE"/>
</svg>
