<svg width="256" height="256" viewBox="0 0 256 256" fill="none" xmlns="http://www.w3.org/2000/svg">
<path opacity="0.2" d="M200 96C200 110.24 195.777 124.161 187.866 136.001C179.954 147.841 168.71 157.07 155.553 162.519C142.397 167.969 127.92 169.395 113.954 166.617C99.9869 163.838 87.1577 156.981 77.0883 146.912C67.019 136.842 60.1616 124.013 57.3835 110.047C54.6054 96.0799 56.0312 81.6031 61.4807 68.4468C66.9302 55.2905 76.1586 44.0457 87.999 36.1342C99.8393 28.2227 113.76 24 128 24C147.096 24 165.409 31.5857 178.912 45.0883C192.414 58.5909 200 76.9044 200 96Z" fill="#F530A6"/>
<path d="M208 96C208 80.5186 203.508 65.3699 195.068 52.391C186.629 39.4121 174.605 29.1607 160.455 22.8801C146.305 16.5995 130.636 14.5595 115.35 17.0075C100.063 19.4556 85.8152 26.2865 74.334 36.6718C62.8528 47.0571 54.6315 60.5506 50.6672 75.5158C46.703 90.481 47.1661 106.275 52.0004 120.982C56.8347 135.689 65.8325 148.678 77.9025 158.373C89.9725 168.068 104.596 174.052 120 175.6V200H88C85.8783 200 83.8434 200.843 82.3432 202.343C80.8429 203.843 80 205.878 80 208C80 210.122 80.8429 212.157 82.3432 213.657C83.8434 215.157 85.8783 216 88 216H120V240C120 242.122 120.843 244.157 122.343 245.657C123.843 247.157 125.878 248 128 248C130.122 248 132.157 247.157 133.657 245.657C135.157 244.157 136 242.122 136 240V216H168C170.122 216 172.157 215.157 173.657 213.657C175.157 212.157 176 210.122 176 208C176 205.878 175.157 203.843 173.657 202.343C172.157 200.843 170.122 200 168 200H136V175.6C155.724 173.593 174.002 164.344 187.302 149.641C200.601 134.938 207.976 115.825 208 96ZM64 96C64 83.342 67.7535 70.9683 74.7859 60.4435C81.8184 49.9188 91.8138 41.7157 103.508 36.8717C115.203 32.0277 128.071 30.7603 140.486 33.2298C152.901 35.6992 164.304 41.7946 173.255 50.7452C182.205 59.6957 188.301 71.0995 190.77 83.5142C193.24 95.929 191.972 108.797 187.128 120.492C182.284 132.186 174.081 142.182 163.556 149.214C153.032 156.246 140.658 160 128 160C111.032 159.981 94.764 153.233 82.7656 141.234C70.7673 129.236 64.0185 112.968 64 96Z" fill="#2EC5CE"/>
</svg>
