<svg width="256" height="256" viewBox="0 0 256 256" fill="none" xmlns="http://www.w3.org/2000/svg">
<path d="M215 168.71C208.1 183.419 197.595 196.147 184.46 205.71L175.1 196.34C174.097 195.333 172.844 194.612 171.47 194.25L150 188.59C148.097 188.089 146.445 186.905 145.36 185.263C144.275 183.621 143.834 181.637 144.12 179.69L146.5 163.49C146.701 162.123 147.253 160.832 148.101 159.742C148.949 158.652 150.065 157.801 151.34 157.27L181.8 144.61C183.207 144.026 184.752 143.856 186.252 144.12C187.753 144.384 189.146 145.071 190.27 146.1L215 168.71ZM159.89 105L182.06 79.1998C183.306 77.7535 183.994 75.9091 184 73.9998V49.9998C165.451 36.6586 142.751 30.3709 119.981 32.2667C97.2111 34.1625 75.8639 44.1176 59.7762 60.3426C43.6885 76.5677 33.9153 97.9987 32.2132 120.784C30.511 143.569 36.9915 166.215 50.4899 184.65L60.4099 178.13C61.5085 177.404 62.411 176.418 63.0373 175.26C63.6635 174.101 63.9942 172.807 63.9999 171.49L64.2099 135.26C64.2207 133.69 64.6899 132.157 65.5599 130.85L86.4999 99.5498C87.1004 98.6584 87.8744 97.8972 88.7756 97.3116C89.6767 96.726 90.6867 96.328 91.7451 96.1413C92.8035 95.9546 93.8887 95.9832 94.9359 96.2252C95.983 96.4671 96.9707 96.9176 97.8399 97.5498L117.65 110.55C119.318 111.751 121.382 112.27 123.42 112L154.88 107.74C156.83 107.474 158.614 106.498 159.89 105Z" fill="#A8D7E8"/>
<path d="M128 24C107.431 24 87.3235 30.0995 70.2207 41.5272C53.118 52.9548 39.7881 69.1974 31.9166 88.2009C24.0451 107.204 21.9855 128.115 25.9984 148.289C30.0112 168.463 39.9163 186.994 54.4609 201.539C69.0056 216.084 87.5366 225.989 107.711 230.002C127.885 234.015 148.796 231.955 167.799 224.083C186.803 216.212 203.045 202.882 214.473 185.779C225.901 168.677 232 148.569 232 128C231.971 100.426 221.004 73.9905 201.507 54.4931C182.01 34.9956 155.574 24.0291 128 24ZM128 40C145.05 39.9819 161.733 44.9452 176 54.28V74L153.83 99.74L122.36 104L122.05 103.78L102.38 90.92C100.636 89.6915 98.6641 88.8242 96.5801 88.369C94.4961 87.9138 92.3421 87.88 90.2448 88.2695C88.1474 88.6589 86.1492 89.4638 84.3675 90.6369C82.5858 91.8099 81.0567 93.3274 79.87 95.1L58.93 126.4C57.1856 129.008 56.2467 132.072 56.23 135.21L56 171.44L52.73 173.59C44.6462 160.243 40.2565 144.987 40.0108 129.385C39.7652 113.783 43.6724 98.3967 51.3321 84.8023C58.9918 71.2078 70.1284 59.8944 83.6007 52.0217C97.0729 44.1489 112.396 40 128 40ZM62.29 186.47L64.81 184.82C67.0106 183.369 68.8184 181.396 70.0727 179.077C71.3271 176.759 71.9891 174.166 72 171.53L72.21 135.3L93.17 104C93.2727 104.079 93.3795 104.152 93.49 104.22L113.16 117.09C116.456 119.417 120.512 120.406 124.51 119.86L156 115.59C159.883 115.072 163.441 113.147 166 110.18L188.17 84.42C190.649 81.5151 192.008 77.8191 192 74V67.67C202.821 79.1179 210.365 93.2642 213.843 108.628C217.321 123.992 216.605 140.008 211.77 155L195.63 140.24C193.386 138.18 190.601 136.804 187.602 136.273C184.603 135.741 181.515 136.077 178.7 137.24L148.24 149.89C145.693 150.959 143.464 152.666 141.769 154.847C140.074 157.027 138.968 159.608 138.56 162.34L136.17 178.53C135.596 182.427 136.479 186.399 138.651 189.685C140.822 192.971 144.13 195.341 147.94 196.34L169.4 202L171.76 204.37C154.236 214.425 133.783 218.134 113.844 214.874C93.9053 211.613 75.6988 201.583 62.29 186.47ZM185 195L180.7 190.69C178.694 188.677 176.188 187.234 173.44 186.51L152 180.85L154.39 164.66L184.84 152L205 170.48C199.862 179.789 193.087 188.096 185 195Z" fill="#2EC5CE"/>
</svg>
