<svg width="256" height="256" viewBox="0 0 256 256" fill="none" xmlns="http://www.w3.org/2000/svg">
<path opacity="0.2" d="M232 94C232 160 128 216 128 216C128 216 24 160 24 94C24 79.6783 29.6893 65.9432 39.8162 55.8162C49.9432 45.6893 63.6783 40 78 40C100.59 40 119.94 52.31 128 72C136.06 52.31 155.41 40 178 40C192.322 40 206.057 45.6893 216.184 55.8162C226.311 65.9432 232 79.6783 232 94Z" fill="#F530A6"/>
<path d="M178 32C157.35 32 139.27 40.88 128 55.89C116.73 40.88 98.65 32 78 32C61.5623 32.0185 45.8031 38.5566 34.1798 50.1798C22.5566 61.8031 16.0185 77.5623 16 94C16 164 119.79 220.66 124.21 223C125.375 223.627 126.677 223.955 128 223.955C129.323 223.955 130.625 223.627 131.79 223C136.21 220.66 240 164 240 94C239.981 77.5623 233.443 61.8031 221.82 50.1798C210.197 38.5566 194.438 32.0185 178 32ZM128 206.8C109.74 196.16 32 147.69 32 94C32.0159 81.8049 36.8674 70.1139 45.4906 61.4906C54.1139 52.8674 65.8049 48.0159 78 48C97.45 48 113.78 58.36 120.6 75C121.203 76.4673 122.228 77.7223 123.546 78.6055C124.863 79.4887 126.414 79.9603 128 79.9603C129.586 79.9603 131.137 79.4887 132.454 78.6055C133.772 77.7223 134.797 76.4673 135.4 75C142.22 58.33 158.55 48 178 48C190.195 48.0159 201.886 52.8674 210.509 61.4906C219.133 70.1139 223.984 81.8049 224 94C224 147.61 146.24 196.15 128 206.8Z" fill="#2EC5CE"/>
</svg>
