<?xml version="1.0" encoding="UTF-8"?>
<svg fill="none" viewBox="0 0 81 24" xmlns="http://www.w3.org/2000/svg">
<g clip-path="url(#a)">
<path d="m59.991 23.282 6.6716-7.3892-6.6716-7.3903h7.0393l3.3043 3.5897 3.1819-3.5897h6.7938l-6.64 7.3597 6.7311 7.4198h-7.0682l-3.2744-3.6192-3.2435 3.6192h-6.8243z" fill="#f60"/>
<path d="m59.991 5.1891h-7.5562v3.313h7.5562v4.993h-7.5562v4.583h7.5562v5.2035h-13.11v-23.282h13.11v5.1891z" fill="#f60"/>
<path d="m41.351 0v9.528h-0.0609c-1.2243-1.3872-2.7541-1.8693-4.529-1.8693-3.6359 0-6.3746 2.4364-7.336 5.6575-1.0964-3.5492-3.9239-5.724-8.1166-5.724-3.4048 0-6.0935 1.5065-7.4966 3.9614v-3.0511h-7.038v-3.3127h7.6804v-5.1898h-13.954v23.282h6.2737v-9.7869h6.2533c-0.1865 0.719-0.286 1.4887-0.286 2.3009 0 4.8566 3.7639 8.2642 8.5673 8.2642 4.0394 0 6.7013-1.8692 8.1093-5.2772h-5.3764c-0.7273 1.0238-1.2789 1.3279-2.7329 1.3279-1.6859 0-3.1394-1.45-3.1394-3.1687h10.948c0.4747 3.8575 3.5231 7.1842 7.7064 7.1842 1.8045 0 3.4567-0.875 4.4671-2.3523h0.0609v1.5072h5.5304v-23.281h-5.5304zm-23.007 13.565c0.3489-1.4787 1.5123-2.4453 2.9648-2.4453 1.599 0 2.7034 0.9367 2.9938 2.4453h-5.9586zm19.651 6.1721c-2.0386 0-3.3054-1.8723-3.3054-3.8273 0-2.0897 1.1019-4.0992 3.3054-4.0992 2.2849 0 3.1951 2.0095 3.1951 4.0992-3e-4 1.9817-0.9648 3.8273-3.1951 3.8273z" fill="#652C8F"/>
</g>
<defs>
<clipPath id="a">
<rect transform="translate(.5)" width="80" height="24" fill="#fff"/>
</clipPath>
</defs>
</svg>
