<?xml version="1.0" encoding="UTF-8"?>
<svg fill="none" viewBox="0 0 85 24" xmlns="http://www.w3.org/2000/svg">
<g clip-path="url(#a)">
<path d="m9.5968 3.9728v6.7697h-6.1683v-6.7697h-2.9285v16.16h2.9285v-6.5499h6.1683v6.5499h2.9284v-16.16h-2.9284z" fill="#33475B"/>
<path d="m21.897 14.909c0 0.6476-0.2552 1.2688-0.7096 1.7267-0.4543 0.458-1.0705 0.7152-1.7131 0.7152-0.6425 0-1.2587-0.2572-1.7131-0.7152-0.4543-0.4579-0.7096-1.0791-0.7096-1.7267v-6.9216h-2.7778v6.9216c0 1.3889 0.5474 2.7209 1.5218 3.7029 0.9743 0.9821 2.2958 1.5339 3.6737 1.5339s2.6994-0.5518 3.6738-1.5339c0.9743-0.982 1.5217-2.314 1.5217-3.7029v-6.9216h-2.7678v6.9216z" fill="#33475B"/>
<path d="m42.479 8.7005c0-1.4187 0.9312-1.8685 1.9514-1.8685 0.8221 0 1.9083 0.63055 2.6185 1.3956l1.8194-2.1606c-0.9083-1.238-2.7506-2.0941-4.2586-2.0941-3.0131 0-5.1926 1.7788-5.1926 4.7277 0 5.471 6.6346 3.7356 6.6346 6.7972 0 0.9444-0.9097 1.7788-1.9513 1.7788-1.6429 0-2.1752-0.8098-2.9299-1.666l-2.0188 2.1158c1.2913 1.5981 2.8839 2.4094 4.7923 2.4094 2.8624 0 5.1653-1.8005 5.1653-4.6149 0-6.0741-6.6346-4.1868-6.6346-6.8203" fill="#33475B"/>
<path d="m83.523 17.551c-1.6414 0-2.1077-0.7158-2.1077-1.8121v-4.852h2.5511v-2.4586h-2.5511v-3.2439l-2.8166 1.2741v9.8835c0 2.528 1.7304 3.8021 4.1036 3.8021 0.3722 0.0068 0.7442-0.0232 1.1106-0.0897l0.6872-2.5496c-0.3099 0.0217-0.6657 0.0433-0.9771 0.0433" fill="#33475B"/>
<path d="m32.471 8.0685c-1.376 0-2.3359 0.40204-3.2642 1.3204v-5.3192h-2.7821v9.8588c0 3.6908 2.6472 6.2188 5.6216 6.2188 3.3001 0 6.2027-2.5728 6.2027-6.038 0-3.4217-2.6716-6.0394-5.778-6.0394v-0.00144zm-0.0172 9.2572c-0.6243 0-1.2346-0.1866-1.7537-0.5362s-0.9237-0.8465-1.1626-1.4279-0.3015-1.2211-0.1797-1.8383 0.4225-1.1841 0.8639-1.6291c0.4415-0.4449 1.004-0.7479 1.6163-0.8707s1.247-0.0598 1.8238 0.181c0.5768 0.2409 1.0698 0.6487 1.4166 1.1719 0.3469 0.5232 0.532 1.1384 0.532 1.7676 0 0.8439-0.3326 1.6531-0.9246 2.2498-0.5919 0.5967-1.3948 0.9319-2.232 0.9319z" fill="#33475B"/>
<path d="m62.679 13.962c0-3.4709-2.8969-6.0379-6.2027-6.0379-2.9744 0-5.6216 2.5279-5.6216 6.2187v9.8646h2.7821v-5.3264c0.9269 0.9169 1.8882 1.3204 3.2627 1.3204 3.1064 0 5.7781-2.6162 5.7781-6.0394h0.0014zm-2.6343-0.0347c0 0.6293-0.1852 1.2444-0.532 1.7677-0.3469 0.5232-0.8399 0.931-1.4167 1.1718s-1.2114 0.3038-1.8238 0.1811c-0.6123-0.1228-1.1747-0.4258-1.6162-0.8708-0.4414-0.445-0.7421-1.0119-0.8639-1.6291s-0.0593-1.2569 0.1796-1.8383c0.239-0.5813 0.6436-1.0783 1.1627-1.4279s1.1293-0.5362 1.7537-0.5362c0.8371 0 1.64 0.3352 2.232 0.9319s0.9246 1.406 0.9246 2.2498z" fill="#33475B"/>
<path d="m71.667 7.7879v-2.8172c0.3694-0.17396 0.6822-0.45009 0.9019-0.79624 0.2197-0.34616 0.3374-0.74811 0.3393-1.159v-0.06508c0-0.57534-0.2268-1.1271-0.6304-1.534s-0.9511-0.63538-1.5219-0.63538h-0.0645c-0.5708 0-1.1183 0.22855-1.5219 0.63538s-0.6304 0.95861-0.6304 1.534v0.06508c0.0019 0.41093 0.1196 0.81288 0.3393 1.159 0.2197 0.34615 0.5325 0.62228 0.9019 0.79624v2.8172c-1.0617 0.1637-2.0615 0.60723-2.8984 1.2857l-7.6648-6.0177c0.0543-0.19844 0.0832-0.40304 0.0861-0.60886 9e-4 -0.48346-0.1405-0.95631-0.4064-1.3588-0.2658-0.40244-0.644-0.71638-1.0868-0.90212-0.4429-0.18574-0.9304-0.23493-1.401-0.14135-0.4706 0.093582-0.903 0.32573-1.2427 0.66708-0.3397 0.34136-0.5713 0.77658-0.6655 1.2506-0.0942 0.47404-0.0469 0.9656 0.1361 1.4125 0.1829 0.4469 0.4933 0.82908 0.8918 1.0982s0.8672 0.41304 1.3468 0.41361c0.4194-0.00189 0.831-0.11458 1.1938-0.32684l7.5486 5.9194c-0.6783 1.0326-1.0322 2.2472-1.0156 3.4854 0.0167 1.2383 0.4031 2.4428 1.1088 3.4565l-2.2957 2.3139c-0.1856-0.0597-0.3791-0.0914-0.5739-0.094-0.3938 3e-4 -0.7786 0.1182-1.1059 0.3389s-0.5823 0.5342-0.7329 0.9009c-0.1505 0.3668-0.1899 0.7703-0.113 1.1595 0.0769 0.3893 0.2666 0.7468 0.545 1.0275 0.2784 0.2806 0.6332 0.4718 1.0193 0.5493 0.3862 0.0775 0.7865 0.0378 1.1504-0.1139 0.3638-0.1518 0.6749-0.4088 0.8938-0.7387s0.336-0.7178 0.3362-1.1147c-0.0024-0.1964-0.0339-0.3914-0.0932-0.5785l2.2713-2.2893c0.7406 0.5744 1.6019 0.9704 2.5178 1.1576s1.8621 0.1606 2.7662-0.0777c0.9042-0.2384 1.7422-0.6821 2.4499-1.2973 0.7077-0.6151 1.2664-1.3854 1.6332-2.2518 0.3668-0.8663 0.532-1.8058 0.4829-2.7465-0.049-0.9407-0.311-1.8575-0.7659-2.6804-0.4548-0.8228-1.0905-1.5298-1.8583-2.0668-0.7678-0.537-1.6473-0.88977-2.5713-1.0313zm-0.9412 9.2645c-0.6213-6e-4 -1.2285-0.1868-1.7448-0.5351s-0.9186-0.8431-1.1561-1.4218c-0.2374-0.5787-0.2993-1.2153-0.1779-1.8295 0.1215-0.6141 0.4209-1.1782 0.8603-1.6209s0.9992-0.7442 1.6085-0.8663c0.6094-0.1222 1.241-0.0595 1.815 0.1801 0.5741 0.2396 1.0647 0.6453 1.4101 1.1659 0.3453 0.5206 0.5297 1.1327 0.53 1.7589 0 0.84-0.331 1.6456-0.9203 2.2396-0.5893 0.5939-1.3886 0.9276-2.2219 0.9276" fill="#FF7A59"/>
</g>
<defs>
<clipPath id="a">
<rect transform="translate(.5)" width="84" height="24" fill="#fff"/>
</clipPath>
</defs>
</svg>
