<?xml version="1.0" encoding="UTF-8"?>
<svg fill="none" viewBox="0 0 85 28" xmlns="http://www.w3.org/2000/svg">
<g clip-path="url(#a)">
<path d="m36.246 14.359c0 3.8866-3.0852 6.7505-6.8713 6.7505-3.7862 0-6.8714-2.8639-6.8714-6.7505 0-3.9139 3.0852-6.7504 6.8714-6.7504 3.7861 0 6.8713 2.8365 6.8713 6.7504zm-3.0079 0c0-2.4287-1.7881-4.0904-3.8634-4.0904s-3.8634 1.6617-3.8634 4.0904c0 2.4044 1.7881 4.0905 3.8634 4.0905s3.8634-1.6892 3.8634-4.0905z" fill="#EA4335"/>
<path d="m51.07 14.359c0 3.8866-3.0851 6.7505-6.8713 6.7505s-6.8713-2.8639-6.8713-6.7505c0-3.9108 3.0851-6.7504 6.8713-6.7504s6.8713 2.8365 6.8713 6.7504zm-3.0079 0c0-2.4287-1.7881-4.0904-3.8634-4.0904s-3.8634 1.6617-3.8634 4.0904c0 2.4044 1.7881 4.0905 3.8634 4.0905s3.8634-1.6892 3.8634-4.0905z" fill="#FBBC05"/>
<path d="m65.276 8.0165v12.119c0 4.9852-2.9833 7.0213-6.51 7.0213-3.3199 0-5.318-2.1883-6.0715-3.9779l2.6188-1.0743c0.4664 1.0987 1.609 2.3952 3.4496 2.3952 2.2575 0 3.6565-1.3726 3.6565-3.9565v-0.9709h-0.105c-0.6733 0.8187-1.9703 1.5339-3.6071 1.5339-3.4249 0-6.5625-2.94-6.5625-6.723 0-3.8104 3.1376-6.7748 6.5625-6.7748 1.6337 0 2.9307 0.71522 3.6071 1.5096h0.105v-1.0987h2.8566v-0.00304zm-2.6435 6.367c0-2.377-1.609-4.1148-3.6565-4.1148-2.0753 0-3.814 1.7378-3.814 4.1148 0 2.3526 1.7387 4.0661 3.814 4.0661 2.0475 0 3.6565-1.7135 3.6565-4.0661z" fill="#4285F4"/>
<path d="m69.985 0.91306v19.783h-2.9338v-19.783h2.9338z" fill="#34A853"/>
<path d="m81.418 16.581 2.3347 1.5339c-0.7535 1.0987-2.5694 2.9917-5.707 2.9917-3.8912 0-6.7972-2.9643-6.7972-6.7504 0-4.0144 2.9307-6.7504 6.4606-6.7504 3.5545 0 5.2932 2.7878 5.8614 4.2944l0.3119 0.767-9.1566 3.7373c0.7011 1.3544 1.7912 2.0453 3.3199 2.0453 1.5317 0 2.5941-0.7426 3.3723-1.8687zm-7.1863-2.4287 6.1209-2.5048c-0.3366-0.8431-1.3496-1.4304-2.5416-1.4304-1.5287 0-3.6565 1.33-3.5793 3.9352z" fill="#EA4335"/>
<path d="m11.398 12.603v-2.8639h9.7928c0.0957 0.49918 0.1451 1.0896 0.1451 1.7287 0 2.1487-0.596 4.8057-2.5169 6.6987-1.8684 1.9174-4.2556 2.94-7.4179 2.94-5.8615 0-10.79-4.7052-10.79-10.482 0-5.7766 4.9288-10.482 10.79-10.482 3.2426 0 5.5526 1.2539 7.2882 2.8883l-2.0506 2.0209c-1.2446-1.1504-2.9307-2.0452-5.2407-2.0452-4.2803 0-7.628 3.3996-7.628 7.6178 0 4.2182 3.3476 7.6178 7.628 7.6178 2.7763 0 4.3575-1.0987 5.3704-2.097 0.8215-0.8095 1.3619-1.966 1.575-3.5456l-6.9454 3e-3z" fill="#4285F4"/>
</g>
<defs>
<clipPath id="a">
<rect transform="translate(.5)" width="84" height="28" fill="#fff"/>
</clipPath>
</defs>
</svg>
