<?xml version="1.0" encoding="UTF-8"?>
<svg fill="none" viewBox="0 0 112 26" xmlns="http://www.w3.org/2000/svg">
<g clip-path="url(#a)">
<path d="m40.002 9.2478v1.4735h0.0451c0.5302-0.78888 1.4104-1.718 3.3614-1.718 1.5178 0 2.6822 0.7726 3.1812 1.9397h0.0451c0.4262-0.5901 0.9148-1.0367 1.4623-1.3529 0.6481-0.37489 1.3689-0.59005 2.2768-0.59005 2.055 0 3.8743 1.3365 3.8743 4.7073v6.3927h-3.1327v-5.9461c0-1.7082-0.6168-2.6959-1.899-2.6959-0.9391 0-1.6218 0.5933-1.8817 1.3235-0.0901 0.251-0.1317 0.5933-0.1317 0.8801v6.4416h-3.1327v-6.1905c0-1.4507-0.5926-2.458-1.8575-2.458-1.0119 0-1.646 0.7498-1.9059 1.392-0.1109 0.2738-0.1456 0.59-0.1456 0.8867v6.3666h-3.1362v-10.852h2.9768zm30.416 0v2.0473h0.0866c0.5753-1.5648 1.9406-2.2918 3.1397-2.2918 0.3015 0 0.4678 0.02282 0.7104 0.06846v2.8426c-0.2877-0.0391-0.5545-0.0782-0.9288-0.0782-1.3584 0-2.3044 0.7433-2.5435 1.907-0.052 0.2413-0.0694 0.5021-0.0694 0.802v5.5581h-3.2158v-10.855h2.8208zm8.303-3.5957v3.4164h2.7169v2.7644h-2.7169v4.0782c0 1.3202 0.357 1.9592 1.4174 1.9592 0.499 0 0.8663-0.0587 1.1851-0.1337l0.0416 2.2917c-0.4262 0.15-1.3341 0.313-2.2559 0.313-1.0847 0-1.9892-0.3553-2.5402-0.9063-0.6306-0.6291-0.9217-1.6593-0.9217-3.1262v-10.657h3.0737zm-43.879 14.448h-3.1189v-14.448h3.1189v14.448zm-8.317-3.8761c0 0.1989-0.0173 0.4075-0.0762 0.5868-0.2426 0.7531-1.0708 1.3887-2.1035 1.3887-0.8629 0-1.549-0.4596-1.549-1.4343 0-1.4898 1.7465-1.9038 3.7322-1.894v1.3528h-0.0035zm3.1154-2.5981c0-2.4612-1.1158-4.6226-4.8896-4.6226-1.9372 0-3.4758 0.51181-4.3144 0.96819l0.6133 1.9755c0.7659-0.4563 1.9892-0.8312 3.1466-0.8312 1.9164-0.0033 2.2282 1.0203 2.2282 1.6756v0.1564c-4.1758-0.0065-6.8129 1.3529-6.8129 4.1238 0 1.6919 1.3411 3.2762 3.6768 3.2762 1.4381 0 2.6371-0.5379 3.3579-1.4017h0.0693s0.4783 1.8744 3.105 1.1572c-0.1386-0.7824-0.1837-1.6136-0.1837-2.6144v-3.863h0.0035zm-25.696-7.9737c0.32228 1.5289 1.2371 5.9688 1.2371 5.9688 0.38466 1.8256 0.73813 3.7392 1.005 5.2518h0.04851c0.2599-1.6072 0.66882-3.1296 1.1055-5.0138l1.5421-6.2068h3.4134l1.4416 6.3666c0.3777 1.7701 0.6792 3.136 0.9183 4.7822h0.045c0.2599-1.6625 0.5996-3.0838 0.9704-4.9029l1.3861-6.2459h3.2748l-4.058 14.448c-2.5851 0.5313-3.5762-0.4466-3.9297-1.9984-0.3535-1.5549-1.0466-4.5117-1.0466-4.5117-0.3569-1.6201-0.6341-2.7611-0.8282-4.4237h-0.0485c-0.2772 1.6463-0.56833 2.8003-0.99804 4.4205l-1.7015 6.5165c-2.6406 0.4955-3.5555-0.238-4.0614-2.2298-0.43664-1.7049-3.1604-12.218-3.1604-12.218h3.4446v-0.00326zm58.454 10.572c0 0.1989-0.0173 0.4075-0.0763 0.5868-0.2425 0.7531-1.0708 1.3887-2.1034 1.3887-0.8629 0-1.5491-0.4596-1.5491-1.4343 0-1.4898 1.7466-1.9038 3.7323-1.894v1.3528h-0.0035zm3.1154-2.5981c0-2.4612-1.1159-4.6226-4.8897-4.6226-1.9371 0-3.4758 0.51181-4.3144 0.96819l0.6134 1.9755c0.7658-0.4563 1.9891-0.8312 3.1466-0.8312 1.9128-0.0033 2.2282 1.0203 2.2282 1.6756v0.1564c-4.1723-0.0065-6.8095 1.3529-6.8095 4.1238 0 1.6919 1.3446 3.2762 3.6768 3.2762 1.4347 0 2.6371-0.5379 3.3545-1.4017h0.0728s0.4782 1.8744 3.1049 1.1572c-0.1386-0.7824-0.1836-1.6136-0.1836-2.6144v-3.863z" fill="#041E42"/>
<path d="m94.08 15.124c0.3075 0.5276 0.2867 1.1165-0.0414 1.3855l-5.6719 3.918c-0.5907 0.337-1.475-0.0715-1.9758-0.9259-0.5043-0.8578-0.4145-1.8143 0.1761-2.1513l6.2799-2.8799c0.3938-0.1497 0.9257 0.126 1.2331 0.6536zm7.4648 0c0.311-0.5276 0.839-0.7999 1.233-0.657l6.283 2.8798c0.591 0.337 0.677 1.2936 0.176 2.1514-0.504 0.8544-1.392 1.2595-1.979 0.9259l-5.672-3.918c-0.324-0.2656-0.349-0.8579-0.041-1.3821zm-3.7342 2.1241c0.6183 0 1.1261 0.3132 1.1952 0.7251l0.6114 6.8012c0 0.674-0.7979 1.2255-1.8031 1.2255-1.0017 0-1.8031-0.5515-1.8031-1.2255l0.6079-6.8012c0.0691-0.4119 0.5769-0.7251 1.1917-0.7251zm3.7752-7.7544 5.672-3.9214c0.587-0.337 1.475 0.06808 1.979 0.9259 0.501 0.85781 0.415 1.8144-0.176 2.1514l-6.283 2.8832c-0.394 0.1429-0.926-0.1294-1.233-0.657-0.308-0.5276-0.283-1.1165 0.041-1.382zm-8.7389 2.039-6.2799-2.8832c-0.5872-0.337-0.677-1.2935-0.1761-2.1514 0.5008-0.85782 1.3886-1.2629 1.9758-0.9259l5.6719 3.9214c0.3281 0.26211 0.3489 0.85445 0.0414 1.382-0.3074 0.5276-0.8393 0.7999-1.2331 0.657zm3.772-3.5062-0.6079-6.8013c0-0.674 0.7979-1.2254 1.8031-1.2254s1.8031 0.55145 1.8031 1.2254l-0.6114 6.8013c-0.0691 0.40848-0.5769 0.72506-1.1952 0.72506-0.6148 0-1.1226-0.31658-1.1917-0.72506zm14.152 12.374v-0.1702h0.156c0.051 0 0.086 0.034 0.086 0.0851 0 0.0476-0.035 0.0851-0.086 0.0851h-0.156zm-0.128 0.3097c0 0.0171 0.014 0.0341 0.035 0.0341h0.066c0.017 0 0.034-0.017 0.034-0.0341v-0.194h0.107l0.087 0.2042c6e-3 0.0137 0.017 0.0239 0.031 0.0239h0.079c0.024 0 0.042-0.0239 0.031-0.0477-0.031-0.0613-0.062-0.1259-0.093-0.1906 0.052-0.017 0.131-0.0681 0.131-0.1906 0-0.1294-0.107-0.2043-0.214-0.2043h-0.259c-0.017 0-0.035 0.017-0.035 0.0341v0.565zm-0.279-0.2825c0-0.2757 0.228-0.5004 0.507-0.5004 0.28 0 0.508 0.2213 0.508 0.5004 0 0.2757-0.224 0.5004-0.508 0.5004-0.283 0-0.507-0.2247-0.507-0.5004zm-0.121 0c0 0.3404 0.279 0.6195 0.628 0.6195 0.346 0 0.629-0.2791 0.629-0.6195s-0.283-0.6195-0.629-0.6195c-0.349 0-0.628 0.2791-0.628 0.6195z" fill="#FFC124"/>
</g>
<defs>
<clipPath id="a">
<rect transform="translate(.5)" width="111" height="26" fill="#fff"/>
</clipPath>
</defs>
</svg>
