<?xml version="1.0" encoding="UTF-8"?>
<svg fill="none" viewBox="0 0 123 26" xmlns="http://www.w3.org/2000/svg">
<g clip-path="url(#a)">
<path d="m43.564 14.975-0.7272 2.0558h-0.0606c-0.1212-0.4636-0.3434-1.169-0.7069-2.0155l-3.8984-9.7752h-3.8175v15.58h2.5248v-9.6139c0-0.6047 0-1.2899-0.0202-2.1364-0.0202-0.42325-0.0606-0.74573-0.0808-0.9876h0.0606c0.1212 0.60466 0.2626 1.0481 0.3636 1.3302l4.6861 11.367h1.7775l4.6456-11.468c0.101-0.26201 0.202-0.78604 0.303-1.2295h0.0606c-0.0606 1.1488-0.101 2.1768-0.1212 2.8016v9.876h2.6865v-15.56h-3.6762l-3.9993 9.7752zm10.22-5.3814h2.6258v11.166h-2.6258v-11.166zm1.3331-4.7163c-0.4444 0-0.8079 0.16124-1.1109 0.44341-0.303 0.28218-0.4646 0.64497-0.4646 1.0884 0 0.42325 0.1616 0.78604 0.4646 1.0682s0.6665 0.42326 1.1109 0.42326 0.8281-0.16124 1.1109-0.42326c0.303-0.28217 0.4646-0.64496 0.4646-1.0682 0-0.42326-0.1616-0.78605-0.4646-1.0884-0.2626-0.28217-0.6463-0.44341-1.1109-0.44341zm10.604 4.6155c-0.4848-0.10078-0.9897-0.16124-1.4745-0.16124-1.1917 0-2.2825 0.26201-3.1914 0.78603-0.9089 0.524-1.6361 1.2496-2.1007 2.1566-0.4847 0.9271-0.7271 1.9954-0.7271 3.2248 0 1.0682 0.2424 2.0155 0.7069 2.8822 0.4646 0.8465 1.111 1.5318 1.9795 1.9953 0.8282 0.4636 1.7977 0.7055 2.8884 0.7055 1.2523 0 2.3229-0.2621 3.1712-0.7458l0.0202-0.0201v-2.4186l-0.101 0.0806c-0.3837 0.2822-0.8281 0.524-1.2725 0.6651-0.4646 0.1612-0.8887 0.2419-1.2523 0.2419-1.0503 0-1.8785-0.3024-2.4642-0.9675-0.606-0.6449-0.909-1.5318-0.909-2.6403 0-1.1488 0.303-2.0558 0.9292-2.7209 0.6261-0.6651 1.4543-1.0078 2.4642-1.0078 0.8483 0 1.7169 0.2822 2.5046 0.8465l0.101 0.0807v-2.5597l-0.0202-0.02015c-0.3434-0.14109-0.7271-0.30233-1.2523-0.4031zm8.6652-0.08062c-0.6463 0-1.2523 0.20155-1.7774 0.62481-0.4444 0.3628-0.7474 0.8868-1.01 1.5116h-0.0202v-1.955h-2.6258v11.166h2.6258v-5.7039c0-0.9674 0.202-1.7736 0.6464-2.3581 0.4443-0.6047 1.0099-0.907 1.6967-0.907 0.2424 0 0.4847 0.0604 0.7877 0.1008 0.2828 0.0806 0.4848 0.1612 0.6262 0.262l0.101 0.0806v-2.6202l-0.0606-0.02016c-0.1818-0.12093-0.5454-0.18139-0.9898-0.18139zm7.1504-0.06047c-1.8381 0-3.3126 0.54419-4.3427 1.6124-1.0504 1.0682-1.5553 2.5396-1.5553 4.3938 0 1.7334 0.5251 3.1442 1.5351 4.1721 1.0099 1.0078 2.3834 1.5318 4.1003 1.5318 1.7977 0 3.2318-0.5442 4.2619-1.6326 1.0503-1.0883 1.5553-2.5395 1.5553-4.3333 0-1.7736-0.4848-3.1845-1.4745-4.2124-0.9493-1.0279-2.343-1.5318-4.0801-1.5318zm2.1006 8.5861c-0.4847 0.6248-1.2523 0.9271-2.2016 0.9271-0.9494 0-1.7169-0.3023-2.2623-0.9674-0.5453-0.6248-0.8079-1.5318-0.8079-2.6807 0-1.1891 0.2828-2.0961 0.8079-2.741 0.5454-0.645 1.2927-0.9675 2.2421-0.9675 0.9291 0 1.6563 0.3023 2.1814 0.9271 0.5252 0.6248 0.808 1.5318 0.808 2.721-0.0404 1.2093-0.2626 2.1566-0.7676 2.7814zm9.3116-3.7086c-0.8281-0.3426-1.3533-0.6046-1.5957-0.8263-0.202-0.2016-0.303-0.4837-0.303-0.8465 0-0.3024 0.1212-0.6047 0.4242-0.8062 0.303-0.2016 0.6464-0.3024 1.1513-0.3024 0.4444 0 0.909 0.0807 1.3533 0.2016 0.4444 0.1209 0.8484 0.3023 1.1716 0.5442l0.101 0.0806v-2.4589l-0.0606-0.02016c-0.303-0.12093-0.707-0.24186-1.1918-0.34263-0.4847-0.08062-0.9291-0.12093-1.2927-0.12093-1.2523 0-2.2824 0.30232-3.0904 0.96743-0.8079 0.6248-1.1917 1.4713-1.1917 2.4589 0 0.5241 0.0808 0.9876 0.2626 1.3706 0.1818 0.3829 0.4444 0.7457 0.8079 1.048 0.3636 0.2822 0.8888 0.6047 1.6159 0.907 0.606 0.262 1.0706 0.4636 1.3533 0.6248 0.2828 0.1613 0.4646 0.3426 0.606 0.4837 0.101 0.1613 0.1616 0.3628 0.1616 0.6248 0 0.7458-0.5656 1.1086-1.7169 1.1086-0.4444 0-0.9089-0.0807-1.4543-0.262-0.5454-0.1814-1.0503-0.4435-1.4745-0.7458l-0.101-0.0806v2.5597l0.0606 0.0201c0.3838 0.1814 0.8483 0.3024 1.4139 0.4435 0.5656 0.1007 1.0705 0.1813 1.5149 0.1813 1.3533 0 2.4642-0.3023 3.252-0.9674 0.8079-0.645 1.2321-1.4713 1.2321-2.5395 0-0.7458-0.202-1.4109-0.6463-1.9148-0.5858-0.4837-1.313-0.9876-2.3633-1.3907zm9.9377-4.8775c-1.838 0-3.3125 0.54419-4.3427 1.6124-1.0301 1.0682-1.5552 2.5396-1.5552 4.3938 0 1.7334 0.5251 3.1442 1.535 4.1721 1.01 1.0078 2.3839 1.5318 4.0999 1.5318 1.798 0 3.232-0.5442 4.262-1.6326 1.051-1.0883 1.556-2.5395 1.556-4.3333 0-1.7736-0.485-3.1845-1.475-4.2124-0.949-1.0279-2.343-1.5318-4.08-1.5318zm2.081 8.5861c-0.485 0.6248-1.253 0.9271-2.202 0.9271-0.97 0-1.717-0.3023-2.262-0.9674-0.5457-0.6248-0.8083-1.5318-0.8083-2.6807 0-1.1891 0.2828-2.0961 0.8083-2.741 0.545-0.645 1.292-0.9675 2.242-0.9675 0.909 0 1.656 0.3023 2.181 0.9271s0.808 1.5318 0.808 2.721c0 1.2093-0.263 2.1566-0.767 2.7814zm17.512-6.1876v-2.1566h-2.646v-3.3054l-0.081 0.02015-2.505 0.74574-0.06 0.02015v2.5194h-3.959v-1.4108c0-0.64496 0.161-1.1488 0.444-1.4713s0.707-0.48372 1.232-0.48372c0.364 0 0.748 0.08062 1.172 0.26202l0.101 0.06046v-2.2775l-0.061-0.02015c-0.363-0.12093-0.848-0.20155-1.474-0.20155-0.788 0-1.475 0.18139-2.101 0.48372-0.626 0.34263-1.091 0.8062-1.434 1.431-0.343 0.60465-0.525 1.2899-0.525 2.076v1.5519h-1.838v2.1364h1.838v9.0295h2.646v-9.0093h3.959v5.7442c0 2.3581 1.111 3.5472 3.333 3.5472 0.363 0 0.747-0.0604 1.11-0.1209 0.384-0.0806 0.667-0.1814 0.829-0.262l0.02-0.0202v-2.1565l-0.101 0.0806c-0.162 0.1008-0.303 0.1814-0.546 0.2418-0.202 0.0605-0.383 0.0807-0.525 0.0807-0.525 0-0.888-0.121-1.151-0.4233-0.242-0.2822-0.364-0.7457-0.364-1.431v-5.2806h2.687z" fill="#737373"/>
<path d="M0.5 0H12.8818V12.355H0.5V0Z" fill="#F25022"/>
<path d="M14.1744 0H26.5562V12.355H14.1744V0Z" fill="#7FBA00"/>
<path d="M0.5 13.645H12.8818V26H0.5V13.645Z" fill="#00A4EF"/>
<path d="M14.1744 13.645H26.5562V26H14.1744V13.645Z" fill="#FFB900"/>
</g>
<defs>
<clipPath id="a">
<rect transform="translate(.5)" width="122" height="26" fill="#fff"/>
</clipPath>
</defs>
</svg>
