<svg width="256" height="256" viewBox="0 0 256 256" fill="none" xmlns="http://www.w3.org/2000/svg">
<path d="M128 21.3335L42.6665 53.3335V118.293C42.6665 172.16 79.0399 222.4 128 234.667C176.96 222.4 213.333 172.16 213.333 118.293V53.3335L128 21.3335ZM192 118.293C192 160.96 164.8 200.427 128 212.48C91.1999 200.427 63.9999 161.067 63.9999 118.293V68.1601L128 44.1601L192 68.1601V118.293ZM105.707 90.6668L90.6665 105.707L112.96 128L90.6665 150.293L105.707 165.333L128 143.147L150.293 165.333L165.333 150.293L143.147 128L165.333 105.707L150.293 90.6668L128 112.96L105.707 90.6668Z" fill="#2EC5CE"/>
<path d="M64 68.1602V118.294C64 160.96 91.2 200.427 128 212.48C164.8 200.427 192 161.067 192 118.294V68.1602L128 44.1602L64 68.1602ZM165.333 105.707L143.147 128L165.333 150.294L150.293 165.334L128 143.147L105.707 165.334L90.6667 150.294L112.96 128L90.6667 105.707L105.707 90.6668L128 112.96L150.293 90.6668L165.333 105.707Z" fill="#A8D7E8"/>
</svg>
