<svg width="256" height="256" viewBox="0 0 256 256" fill="none" xmlns="http://www.w3.org/2000/svg">
<path d="M184 128C184 139.076 180.716 149.903 174.562 159.112C168.409 168.321 159.663 175.499 149.43 179.737C139.198 183.976 127.938 185.085 117.075 182.924C106.212 180.763 96.2338 175.43 88.402 167.598C80.5703 159.766 75.2368 149.788 73.076 138.925C70.9153 128.062 72.0243 116.802 76.2628 106.57C80.5013 96.3371 87.6789 87.5911 96.8881 81.4377C106.097 75.2843 116.924 72 128 72C142.852 72 157.096 77.9 167.598 88.402C178.1 98.9041 184 113.148 184 128Z" fill="#F5B230"/>
<path d="M120 40V32C120 29.8783 120.843 27.8434 122.343 26.3431C123.843 24.8429 125.878 24 128 24C130.122 24 132.157 24.8429 133.657 26.3431C135.157 27.8434 136 29.8783 136 32V40C136 42.1217 135.157 44.1566 133.657 45.6569C132.157 47.1571 130.122 48 128 48C125.878 48 123.843 47.1571 122.343 45.6569C120.843 44.1566 120 42.1217 120 40ZM192 128C192 140.658 188.246 153.032 181.214 163.556C174.182 174.081 164.186 182.284 152.492 187.128C140.797 191.972 127.929 193.24 115.514 190.77C103.099 188.301 91.6957 182.205 82.7452 173.255C73.7946 164.304 67.6992 152.901 65.2297 140.486C62.7603 128.071 64.0277 115.203 68.8717 103.508C73.7157 91.8138 81.9188 81.8184 92.4435 74.7859C102.968 67.7535 115.342 64 128 64C144.968 64.0185 161.236 70.7673 173.234 82.7656C185.233 94.7639 191.981 111.032 192 128ZM176 128C176 118.506 173.185 109.226 167.911 101.333C162.636 93.4391 155.14 87.2868 146.369 83.6538C137.598 80.0208 127.947 79.0702 118.636 80.9223C109.325 82.7744 100.772 87.346 94.0589 94.0589C87.346 100.772 82.7744 109.325 80.9223 118.636C79.0702 127.947 80.0208 137.598 83.6538 146.369C87.2868 155.14 93.4391 162.636 101.333 167.911C109.226 173.185 118.506 176 128 176C140.726 175.987 152.928 170.925 161.927 161.927C170.925 152.928 175.987 140.726 176 128ZM58.34 69.66C59.8411 71.1611 61.8771 72.0044 64 72.0044C66.1229 72.0044 68.1589 71.1611 69.66 69.66C71.1611 68.1589 72.0044 66.1229 72.0044 64C72.0044 61.8771 71.1611 59.8411 69.66 58.34L61.66 50.34C60.1589 48.8389 58.1229 47.9956 56 47.9956C53.8771 47.9956 51.8411 48.8389 50.34 50.34C48.8389 51.8411 47.9956 53.8771 47.9956 56C47.9956 58.1229 48.8389 60.1589 50.34 61.66L58.34 69.66ZM58.34 186.34L50.34 194.34C48.8389 195.841 47.9956 197.877 47.9956 200C47.9956 202.123 48.8389 204.159 50.34 205.66C51.8411 207.161 53.8771 208.004 56 208.004C58.1229 208.004 60.1589 207.161 61.66 205.66L69.66 197.66C70.4033 196.917 70.9929 196.034 71.3951 195.063C71.7974 194.092 72.0044 193.051 72.0044 192C72.0044 190.949 71.7974 189.908 71.3951 188.937C70.9929 187.966 70.4033 187.083 69.66 186.34C68.9167 185.597 68.0343 185.007 67.0632 184.605C66.092 184.203 65.0512 183.996 64 183.996C62.9488 183.996 61.908 184.203 60.9368 184.605C59.9657 185.007 59.0833 185.597 58.34 186.34ZM192 72C193.051 72.0008 194.092 71.7946 195.063 71.3931C196.034 70.9916 196.917 70.4027 197.66 69.66L205.66 61.66C207.161 60.1589 208.004 58.1229 208.004 56C208.004 53.8771 207.161 51.8411 205.66 50.34C204.159 48.8389 202.123 47.9956 200 47.9956C197.877 47.9956 195.841 48.8389 194.34 50.34L186.34 58.34C185.22 59.4588 184.457 60.8849 184.148 62.4375C183.839 63.9902 183.997 65.5997 184.603 67.0623C185.209 68.5249 186.235 69.7748 187.552 70.6538C188.869 71.5327 190.417 72.0012 192 72ZM197.66 186.34C196.159 184.839 194.123 183.996 192 183.996C189.877 183.996 187.841 184.839 186.34 186.34C184.839 187.841 183.996 189.877 183.996 192C183.996 194.123 184.839 196.159 186.34 197.66L194.34 205.66C195.083 206.403 195.966 206.993 196.937 207.395C197.908 207.797 198.949 208.004 200 208.004C201.051 208.004 202.092 207.797 203.063 207.395C204.034 206.993 204.917 206.403 205.66 205.66C206.403 204.917 206.993 204.034 207.395 203.063C207.797 202.092 208.004 201.051 208.004 200C208.004 198.949 207.797 197.908 207.395 196.937C206.993 195.966 206.403 195.083 205.66 194.34L197.66 186.34ZM40 120H32C29.8783 120 27.8434 120.843 26.3431 122.343C24.8429 123.843 24 125.878 24 128C24 130.122 24.8429 132.157 26.3431 133.657C27.8434 135.157 29.8783 136 32 136H40C42.1217 136 44.1566 135.157 45.6569 133.657C47.1571 132.157 48 130.122 48 128C48 125.878 47.1571 123.843 45.6569 122.343C44.1566 120.843 42.1217 120 40 120ZM128 208C125.878 208 123.843 208.843 122.343 210.343C120.843 211.843 120 213.878 120 216V224C120 226.122 120.843 228.157 122.343 229.657C123.843 231.157 125.878 232 128 232C130.122 232 132.157 231.157 133.657 229.657C135.157 228.157 136 226.122 136 224V216C136 213.878 135.157 211.843 133.657 210.343C132.157 208.843 130.122 208 128 208ZM224 120H216C213.878 120 211.843 120.843 210.343 122.343C208.843 123.843 208 125.878 208 128C208 130.122 208.843 132.157 210.343 133.657C211.843 135.157 213.878 136 216 136H224C226.122 136 228.157 135.157 229.657 133.657C231.157 132.157 232 130.122 232 128C232 125.878 231.157 123.843 229.657 122.343C228.157 120.843 226.122 120 224 120Z" fill="#2EC5CE"/>
</svg>
