<svg width="256" height="256" viewBox="0 0 256 256" fill="none" xmlns="http://www.w3.org/2000/svg">
<path d="M173.85 41.0249H117.7L70.2999 122.875H109.65L94.5749 183.125L174.525 106.85H121.775L173.85 41.0249Z" fill="#F5B230"/>
<path d="M212.025 89.825H156.95L206.475 27.25C207.5 25.925 206.575 24 204.9 24H109.025C108.325 24 107.65 24.375 107.3 25L42.5251 136.875C41.7501 138.2 42.7001 139.875 44.2501 139.875H87.85L65.5 229.275C65.025 231.225 67.375 232.6 68.825 231.2L141.113 162.225L213.4 93.25C214.7 92.025 213.825 89.825 212.025 89.825ZM94.575 183.125L109.65 122.875H70.3L117.7 41.025H173.85L121.775 106.85H174.525L94.575 183.125Z" fill="#2EC5CE"/>
</svg>
