<svg width="256" height="256" viewBox="0 0 256 256" fill="none" xmlns="http://www.w3.org/2000/svg">
<path fill-rule="evenodd" clip-rule="evenodd" d="M46.0053 69.3335C49.92 68.1388 55.0933 66.9655 61.4293 65.9202C78.2507 63.1042 101.792 61.3335 128 61.3335C130.122 61.3335 132.157 60.4906 133.657 58.9904C135.157 57.4901 136 55.4552 136 53.3335C136 51.2118 135.157 49.1769 133.657 47.6766C132.157 46.1763 130.122 45.3335 128 45.3335C101.195 45.3335 76.7253 47.1468 58.8053 50.1335C49.8987 51.6162 42.24 53.4402 36.6187 55.6588C33.8453 56.7575 31.0933 58.1122 28.896 59.9042C26.8053 61.6108 24 64.7362 24 69.3335C24 73.9308 26.8053 77.0562 28.9067 78.7628C31.0933 80.5442 33.8347 81.9095 36.608 83.0082C42.24 85.2162 49.8987 87.0615 58.7947 88.5335C76.7253 91.5202 101.195 93.3335 128 93.3335C154.816 93.3335 179.275 91.5202 197.195 88.5335C206.101 87.0508 213.76 85.2268 219.381 83.0082C222.155 81.9095 224.907 80.5548 227.104 78.7628C229.195 77.0562 232 73.9308 232 69.3335C232 63.6268 227.765 60.1922 225.28 58.5922C222.4 56.7255 218.667 55.2535 214.645 54.0268C206.517 51.5415 195.296 49.5362 182.219 48.0748C180.11 47.84 177.994 48.4526 176.336 49.7779C174.679 51.1032 173.616 53.0325 173.381 55.1415C173.147 57.2505 173.759 59.3664 175.084 61.0237C176.41 62.681 178.339 63.744 180.448 63.9788C193.099 65.3868 203.211 67.2642 209.973 69.3335H209.995C204.931 70.7967 199.779 71.9368 194.571 72.7468C177.749 75.5628 154.208 77.3335 128 77.3335C101.792 77.3335 78.2507 75.5628 61.44 72.7468C56.2271 71.9419 51.0715 70.8017 46.0053 69.3335ZM217.152 72.4375C217.1 72.4052 217.054 72.3657 217.013 72.3202L217.152 72.4375Z" fill="#2EC5CE"/>
<path opacity="0.5" fill-rule="evenodd" clip-rule="evenodd" d="M220.864 103.968C221.22 104.958 221.377 106.008 221.327 107.058C221.277 108.109 221.02 109.139 220.571 110.09C220.122 111.041 219.49 111.894 218.711 112.601C217.933 113.308 217.022 113.854 216.032 114.208H216.011L215.979 114.219L215.872 114.251L215.531 114.368C213.65 114.979 211.755 115.541 209.845 116.054C205.931 117.12 200.16 118.507 192.565 119.872C177.344 122.624 154.805 125.334 125.056 125.334C95.3173 125.334 74.1973 122.624 60.352 119.851C55.1337 118.832 49.9742 117.533 44.896 115.958C43.2079 115.427 41.5393 114.836 39.8933 114.187L39.5733 114.048L39.4667 114.006L39.4347 113.984C39.4347 113.984 39.4027 113.974 42.6667 106.667L39.4027 113.974C37.4634 113.112 35.9458 111.516 35.1836 109.535C34.4215 107.555 34.4773 105.353 35.3387 103.414C36.2001 101.474 37.7966 99.9567 39.777 99.1945C41.7574 98.4324 43.9594 98.4882 45.8987 99.3496M45.8987 99.3496L46.0053 99.3922L46.6453 99.6482C47.2853 99.8829 48.2987 100.256 49.7387 100.715C52.608 101.622 57.1307 102.88 63.4987 104.16C76.224 106.72 96.2986 109.334 125.056 109.334C153.824 109.334 175.413 106.71 189.717 104.128C196.864 102.838 202.197 101.558 205.685 100.608C207.279 100.182 208.862 99.716 210.432 99.2109L210.645 99.1362C211.635 98.7803 212.674 98.6229 213.725 98.6732C214.775 98.7234 215.805 98.9803 216.756 99.4291C217.708 99.8778 218.561 100.51 219.267 101.289C219.974 102.068 220.52 102.978 220.875 103.968M88.2453 163.222C86.2855 162.506 84.1238 162.585 82.2211 163.441C80.3184 164.296 78.8253 165.862 78.0601 167.802C77.2949 169.743 77.3181 171.906 78.1249 173.83C78.9316 175.754 80.458 177.287 82.3786 178.102L82.4 178.112L82.432 178.123L82.5066 178.155L82.72 178.23C83.6822 178.595 84.6611 178.916 85.6533 179.19C87.6053 179.755 90.4533 180.48 94.208 181.195C101.717 182.624 112.885 184 128 184C143.115 184 154.283 182.624 161.803 181.195C164.685 180.659 167.539 179.986 170.357 179.179C171.344 178.892 172.323 178.576 173.291 178.23L173.504 178.155L173.568 178.123L173.6 178.112L170.667 170.667L173.621 178.102C175.542 177.287 177.068 175.754 177.875 173.83C178.682 171.906 178.705 169.743 177.94 167.802C177.175 165.862 175.681 164.296 173.779 163.441C171.876 162.585 169.714 162.506 167.755 163.222H167.733M167.733 163.222L167.435 163.328C167.125 163.435 166.613 163.606 165.877 163.819C163.551 164.48 161.194 165.032 158.816 165.472C152.309 166.71 142.144 168 128 168C113.867 168 103.701 166.72 97.1946 165.472C94.2829 164.929 91.4051 164.216 88.576 163.339C88.476 163.304 88.3765 163.269 88.2773 163.232" fill="#F5B230"/>
<path fill-rule="evenodd" clip-rule="evenodd" d="M178.24 194.752C178.925 196.759 178.786 198.957 177.852 200.861C176.918 202.765 175.265 204.22 173.259 204.907C162.154 208.838 150.446 210.787 138.667 210.667C123.765 210.667 112.704 209.334 105.195 207.926C104.162 207.732 103.177 207.337 102.296 206.763C101.416 206.19 100.657 205.448 100.063 204.581C99.4694 203.713 99.0522 202.738 98.8355 201.709C98.6188 200.681 98.6067 199.62 98.8 198.587C98.9933 197.554 99.3882 196.569 99.9621 195.689C100.536 194.808 101.278 194.049 102.145 193.456C103.012 192.862 103.988 192.445 105.016 192.228C106.045 192.011 107.106 191.999 108.139 192.192C114.656 193.419 124.736 194.667 138.667 194.667C148.686 194.785 158.647 193.123 168.085 189.76C169.08 189.421 170.131 189.281 171.18 189.349C172.229 189.416 173.254 189.689 174.197 190.153C175.14 190.616 175.982 191.261 176.676 192.05C177.37 192.84 177.901 193.758 178.24 194.752ZM70.304 133.739C69.0804 132.159 67.3097 131.094 65.3403 130.754C63.3709 130.413 61.3455 130.823 59.6628 131.901C57.98 132.979 56.7617 134.648 56.2477 136.579C55.7336 138.51 55.9611 140.564 56.8853 142.336L64 138.667C56.8853 142.336 56.896 142.347 56.896 142.347L56.9067 142.368L56.928 142.411L56.9707 142.496L57.0667 142.656C57.2748 143.019 57.5064 143.369 57.76 143.702C58.1333 144.192 58.5813 144.704 59.1253 145.216C60.2133 146.251 61.6533 147.318 63.584 148.363C67.392 150.432 73.344 152.566 82.784 154.23C84.8366 154.52 86.9218 154.002 88.6001 152.785C90.2785 151.569 91.419 149.748 91.7813 147.707C92.1436 145.666 91.6995 143.563 90.5424 141.843C89.3854 140.123 87.6058 138.919 85.5787 138.486C77.184 136.992 73.0347 135.286 71.2213 134.304C70.904 134.135 70.5977 133.946 70.304 133.739ZM195.669 131.563C197.554 132.535 198.976 134.216 199.622 136.236C200.269 138.257 200.086 140.451 199.115 142.336L192 138.667C199.115 142.336 199.104 142.347 199.093 142.368L199.083 142.39L199.051 142.454L198.976 142.582C198.827 142.854 198.664 143.117 198.485 143.371C198.229 143.734 197.931 144.118 197.579 144.502C196.748 145.4 195.817 146.202 194.805 146.891C192.533 148.491 189.205 150.144 184.288 151.648C174.517 154.646 157.621 157.334 128 157.334C125.878 157.334 123.843 156.491 122.343 154.99C120.843 153.49 120 151.455 120 149.334C120 147.212 120.843 145.177 122.343 143.677C123.843 142.176 125.878 141.334 128 141.334C156.875 141.334 171.989 138.688 179.595 136.352C183.371 135.2 185.067 134.176 185.643 133.782C186.788 132.294 188.42 131.257 190.253 130.851C192.086 130.446 194.003 130.697 195.669 131.563Z" fill="#F5B230"/>
</svg>
