<svg width="256" height="256" viewBox="0 0 256 256" fill="none" xmlns="http://www.w3.org/2000/svg">
<path opacity="0.2" d="M232 127.82C232.031 139.42 228.909 150.811 222.967 160.774C217.025 170.737 208.486 178.898 198.265 184.384C188.043 189.87 176.523 192.474 164.936 191.918C153.348 191.363 142.13 187.668 132.48 181.23C131.153 180.327 129.585 179.844 127.98 179.844C126.375 179.844 124.807 180.327 123.48 181.23C116.137 186.156 107.852 189.507 99.1486 191.072C90.4453 192.636 81.5122 192.38 72.9128 190.32C64.3134 188.259 56.2343 184.439 49.1851 179.1C42.1359 173.761 36.2696 167.019 31.9562 159.3C27.6428 151.58 24.976 143.051 24.1238 134.249C23.2716 125.447 24.2527 116.564 27.0051 108.161C29.7575 99.7573 34.2215 92.0153 40.1155 85.4232C46.0096 78.8311 53.2057 73.5319 61.2501 69.86C63.0564 69.0169 64.4829 67.5298 65.2501 65.69C70.4284 53.3276 79.1446 42.7711 90.3037 35.3469C101.463 27.9226 114.567 23.9617 127.97 23.9617C141.373 23.9617 154.478 27.9226 165.637 35.3469C176.796 42.7711 185.512 53.3276 190.69 65.69C191.457 67.5298 192.884 69.0169 194.69 69.86C205.792 74.9536 215.204 83.1176 221.815 93.3879C228.426 103.658 231.96 115.606 232 127.82Z" fill="#F530A6"/>
<path d="M198.1 62.6C192.313 48.7825 182.571 36.9834 170.099 28.6852C157.627 20.3869 142.981 15.9597 128 15.9597C113.02 15.9597 98.3731 20.3869 85.901 28.6852C73.4288 36.9834 63.6872 48.7825 57.9 62.6C45.4472 68.3695 34.8939 77.5646 27.4741 89.1105C20.0543 100.656 16.0745 114.076 16 127.8C15.89 166.62 47.36 199 86.14 200C97.8713 200.306 109.498 197.727 120 192.49V232C120 234.122 120.843 236.157 122.343 237.657C123.843 239.157 125.878 240 128 240C130.122 240 132.157 239.157 133.657 237.657C135.157 236.157 136 234.122 136 232V192.49C145.938 197.446 156.895 200.018 168 200H169.86C208.64 199 240.11 166.64 240 127.82C239.933 114.092 235.956 100.666 228.536 89.1159C221.116 77.5655 210.558 68.368 198.1 62.6ZM169.45 184C157.897 184.316 146.532 181.031 136.93 174.6C136.617 174.4 136.307 174.21 136 174.03V132.94L179.58 111.16C180.52 110.69 181.359 110.039 182.048 109.245C182.736 108.451 183.262 107.529 183.594 106.531C183.927 105.534 184.06 104.481 183.985 103.433C183.911 102.384 183.63 101.36 183.16 100.42C182.69 99.4798 182.039 98.6413 181.245 97.9526C180.451 97.2638 179.529 96.7382 178.531 96.4057C177.534 96.0733 176.481 95.9405 175.433 96.0151C174.384 96.0896 173.36 96.3699 172.42 96.84L136 115.06V88.0001C136 85.8783 135.157 83.8435 133.657 82.3432C132.157 80.8429 130.122 80.0001 128 80.0001C125.878 80.0001 123.843 80.8429 122.343 82.3432C120.843 83.8435 120 85.8783 120 88.0001V139.06L83.58 120.84C81.6811 119.891 79.4827 119.734 77.4686 120.406C75.4545 121.077 73.7895 122.521 72.84 124.42C71.8906 126.319 71.7343 128.517 72.4057 130.532C73.0771 132.546 74.5211 134.211 76.42 135.16L120 156.94V174C119.69 174.18 119.38 174.37 119.08 174.57C109.478 181.012 98.1091 184.308 86.55 184C73.9023 183.684 61.7343 179.095 52.0282 170.98C42.3221 162.864 35.6499 151.702 33.0988 139.31C30.5476 126.918 32.2677 114.027 37.9789 102.738C43.69 91.449 53.0557 82.4263 64.55 77.14C68.1854 75.4744 71.0596 72.5002 72.6 68.81C77.1665 57.8967 84.8572 48.5768 94.7054 42.022C104.554 35.4671 116.12 31.9699 127.95 31.9699C139.78 31.9699 151.346 35.4671 161.195 42.022C171.043 48.5768 178.734 57.8967 183.3 68.81C184.84 72.5002 187.715 75.4744 191.35 77.14C202.844 82.4263 212.21 91.449 217.921 102.738C223.632 114.027 225.353 126.918 222.801 139.31C220.25 151.702 213.578 162.864 203.872 170.98C194.166 179.095 181.998 183.684 169.35 184H169.45Z" fill="#2EC5CE"/>
</svg>
