<?xml version="1.0" encoding="UTF-8"?> <svg xmlns="http://www.w3.org/2000/svg" xmlns:xlink="http://www.w3.org/1999/xlink" width="183.684" height="59.353" viewBox="0 0 183.684 59.353"><defs><clipPath id="clip-path"><rect id="Rectangle_311" data-name="Rectangle 311" width="183.683" height="59.353" fill="none"></rect></clipPath></defs><g id="Group_3895" data-name="Group 3895" transform="translate(0 -28.923)"><g id="Group_1048" data-name="Group 1048" transform="translate(-121.23 -212.023)"><g id="Group_1048-2" data-name="Group 1048" transform="translate(189.44 245.636)"><path id="Path_887" data-name="Path 887" d="M211.207,247.779a.332.332,0,0,1,.344-.457h2.229a.391.391,0,0,1,.343.267l1.639,6.46h.077l2.953-6.707a.363.363,0,0,1,.324-.21h.343a.324.324,0,0,1,.324.21l2.953,6.707h.077l1.639-6.46a.391.391,0,0,1,.343-.267h2.229a.332.332,0,0,1,.343.457l-3.6,12.805a.368.368,0,0,1-.343.266h-.3a.385.385,0,0,1-.324-.209l-3.487-7.793h-.057l-3.468,7.793a.388.388,0,0,1-.325.209h-.3a.367.367,0,0,1-.343-.266Z" transform="translate(-211.187 -247.131)" fill="#d61c26"></path><path id="Path_888" data-name="Path 888" d="M240.726,247.131a6.86,6.86,0,1,1-6.84,6.879,6.848,6.848,0,0,1,6.84-6.879m0,10.671a3.811,3.811,0,1,0-3.791-3.792,3.819,3.819,0,0,0,3.791,3.792" transform="translate(-216.675 -247.131)" fill="#d61c26"></path><path id="Path_889" data-name="Path 889" d="M255,247.744a.362.362,0,0,1,.362-.362h5.7a4.072,4.072,0,0,1,1.334,7.946l2.61,4.84a.36.36,0,0,1-.323.553h-2.535a.347.347,0,0,1-.3-.171L259.3,255.5H257.99v4.859a.375.375,0,0,1-.362.362H255.36a.362.362,0,0,1-.362-.362Zm5.812,5.335a1.528,1.528,0,0,0,1.448-1.524,1.459,1.459,0,0,0-1.448-1.448h-2.82v2.972Z" transform="translate(-221.779 -247.192)" fill="#d61c26"></path><path id="Path_890" data-name="Path 890" d="M271.839,247.745a.362.362,0,0,1,.362-.362h2.267a.375.375,0,0,1,.362.362V257.92h4.535a.361.361,0,0,1,.362.362v2.077a.362.362,0,0,1-.362.362H272.2a.362.362,0,0,1-.362-.362Z" transform="translate(-225.85 -247.192)" fill="#d61c26"></path><path id="Path_891" data-name="Path 891" d="M284.682,247.744a.358.358,0,0,1,.343-.362h4.65a6.67,6.67,0,1,1,0,13.339h-4.65a.358.358,0,0,1-.343-.362Zm4.8,10.156a3.862,3.862,0,0,0,0-7.717h-1.83V257.9Z" transform="translate(-228.955 -247.192)" fill="#d61c26"></path><path id="Path_892" data-name="Path 892" d="M212.771,271.745a.375.375,0,0,1,.362-.362H215.4a.362.362,0,0,1,.362.362v4.8h5.45v-4.8a.362.362,0,0,1,.362-.362h2.268a.374.374,0,0,1,.362.362V284.36a.374.374,0,0,1-.362.361h-2.268a.361.361,0,0,1-.362-.361v-5.012h-5.45v5.012a.362.362,0,0,1-.362.361h-2.268a.375.375,0,0,1-.362-.361Z" transform="translate(-211.57 -252.994)" fill="#d61c26"></path><path id="Path_893" data-name="Path 893" d="M232.175,271.745a.362.362,0,0,1,.362-.362h7.889a.362.362,0,0,1,.362.362v2.077a.362.362,0,0,1-.362.362h-5.277v2.362h4.344a.375.375,0,0,1,.362.362v2.077a.362.362,0,0,1-.362.362h-4.344v2.573h5.277a.362.362,0,0,1,.362.362v2.078a.362.362,0,0,1-.362.361h-7.889a.361.361,0,0,1-.362-.361Z" transform="translate(-216.261 -252.994)" fill="#d61c26"></path><path id="Path_894" data-name="Path 894" d="M244.63,284.165l5.964-12.824a.386.386,0,0,1,.325-.209h.19a.387.387,0,0,1,.325.209l5.964,12.824a.336.336,0,0,1-.324.5h-2.115c-.343,0-.5-.114-.667-.476l-.685-1.506h-5.183l-.685,1.525a.709.709,0,0,1-.686.457h-2.1a.337.337,0,0,1-.325-.5m7.832-4.078-1.448-3.144h-.019l-1.429,3.144Z" transform="translate(-219.263 -252.933)" fill="#d61c26"></path><path id="Path_895" data-name="Path 895" d="M263.543,271.744a.362.362,0,0,1,.362-.362h5.7a4.072,4.072,0,0,1,1.334,7.946l2.61,4.841a.36.36,0,0,1-.323.552h-2.535a.35.35,0,0,1-.3-.171L267.85,279.5h-1.315v4.86a.374.374,0,0,1-.362.361h-2.267a.361.361,0,0,1-.362-.361Zm5.812,5.335a1.527,1.527,0,0,0,1.448-1.523,1.46,1.46,0,0,0-1.448-1.45h-2.82v2.973Z" transform="translate(-223.844 -252.994)" fill="#d61c26"></path><path id="Path_896" data-name="Path 896" d="M281.662,274.183h-2.725a.362.362,0,0,1-.362-.362v-2.078a.362.362,0,0,1,.362-.362H287.4a.362.362,0,0,1,.362.362v2.078a.362.362,0,0,1-.362.362h-2.724v10.176a.375.375,0,0,1-.362.362h-2.287a.375.375,0,0,1-.362-.362Z" transform="translate(-227.478 -252.994)" fill="#d61c26"></path><path id="Path_897" data-name="Path 897" d="M212.771,295.745a.362.362,0,0,1,.362-.362h7.889a.362.362,0,0,1,.362.362v2.077a.362.362,0,0,1-.362.362h-5.278v2.745h4.345a.374.374,0,0,1,.362.361v2.078a.374.374,0,0,1-.362.361h-4.345v4.631a.374.374,0,0,1-.362.361h-2.249a.361.361,0,0,1-.362-.361Z" transform="translate(-211.57 -258.796)"></path><path id="Path_898" data-name="Path 898" d="M226.922,295.745a.362.362,0,0,1,.362-.362h7.889a.362.362,0,0,1,.362.362v2.077a.362.362,0,0,1-.362.362h-5.278v2.363h4.345a.375.375,0,0,1,.362.362v2.077a.362.362,0,0,1-.362.362h-4.345v2.573h5.278a.362.362,0,0,1,.362.361v2.078a.361.361,0,0,1-.362.361h-7.889a.361.361,0,0,1-.362-.361Z" transform="translate(-214.991 -258.796)"></path><path id="Path_899" data-name="Path 899" d="M241.652,295.745a.358.358,0,0,1,.343-.362h4.65a6.669,6.669,0,1,1,0,13.338h-4.65a.357.357,0,0,1-.343-.361Zm4.8,10.157a3.862,3.862,0,0,0,0-7.717h-1.83V305.9Z" transform="translate(-218.552 -258.796)"></path><path id="Path_900" data-name="Path 900" d="M260.126,295.745a.362.362,0,0,1,.362-.362h7.889a.362.362,0,0,1,.362.362v2.077a.362.362,0,0,1-.362.362H263.1v2.363h4.344a.375.375,0,0,1,.362.362v2.077a.362.362,0,0,1-.362.362H263.1v2.573h5.278a.362.362,0,0,1,.362.361v2.078a.361.361,0,0,1-.362.361h-7.889a.361.361,0,0,1-.362-.361Z" transform="translate(-223.018 -258.796)"></path><path id="Path_901" data-name="Path 901" d="M274.855,295.744a.362.362,0,0,1,.362-.362h5.7a4.072,4.072,0,0,1,1.334,7.946l2.611,4.841a.36.36,0,0,1-.324.552H282a.351.351,0,0,1-.3-.171l-2.534-5.049h-1.315v4.86a.374.374,0,0,1-.362.361h-2.268a.361.361,0,0,1-.362-.361Zm5.811,5.335a1.527,1.527,0,0,0,1.448-1.523,1.46,1.46,0,0,0-1.448-1.45h-2.82v2.973Z" transform="translate(-226.579 -258.796)"></path><path id="Path_902" data-name="Path 902" d="M289.42,308.165l5.964-12.824a.388.388,0,0,1,.324-.209h.19a.387.387,0,0,1,.324.209l5.964,12.824a.336.336,0,0,1-.324.5h-2.116c-.343,0-.5-.115-.667-.476l-.686-1.506h-5.183l-.685,1.524a.71.71,0,0,1-.686.458h-2.1a.337.337,0,0,1-.324-.5m7.832-4.078-1.448-3.144h-.019l-1.429,3.144Z" transform="translate(-230.091 -258.735)"></path><path id="Path_903" data-name="Path 903" d="M308.707,298.183h-2.725a.362.362,0,0,1-.362-.362v-2.077a.363.363,0,0,1,.362-.362h8.461a.363.363,0,0,1,.362.362v2.077a.362.362,0,0,1-.362.362h-2.725v10.176a.374.374,0,0,1-.362.362h-2.287a.374.374,0,0,1-.362-.362Z" transform="translate(-234.016 -258.796)"></path><path id="Rectangle_310" data-name="Rectangle 310" d="M.477,0H2.533a.478.478,0,0,1,.478.478V12.862a.476.476,0,0,1-.476.476H.477A.477.477,0,0,1,0,12.861V.477A.477.477,0,0,1,.477,0Z" transform="translate(82.695 36.587)"></path><path id="Path_904" data-name="Path 904" d="M334.1,295.132a6.86,6.86,0,1,1-6.841,6.878,6.847,6.847,0,0,1,6.841-6.878m0,10.67a3.811,3.811,0,1,0-3.792-3.792A3.818,3.818,0,0,0,334.1,305.8" transform="translate(-239.248 -258.735)"></path><path id="Path_905" data-name="Path 905" d="M348.348,295.474a.359.359,0,0,1,.362-.343h.476l7.6,7.317h.019v-6.765a.362.362,0,0,1,.362-.362h2.286a.375.375,0,0,1,.362.362v12.824a.358.358,0,0,1-.362.343h-.3a.56.56,0,0,1-.248-.1l-7.526-7.564h-.019V308.3a.362.362,0,0,1-.362.362h-2.268a.375.375,0,0,1-.362-.362Z" transform="translate(-244.346 -258.735)"></path></g><g id="Group_1050" data-name="Group 1050" transform="translate(121.23 240.946)"><g id="Group_1049" data-name="Group 1049" clip-path="url(#clip-path)"><path id="Path_906" data-name="Path 906" d="M167.372,278.315a6.933,6.933,0,0,0-1.447-8.323c-1.3-1.2-3.085-1.593-5.362-1.1a6.191,6.191,0,0,0-3.7,3.149,6.191,6.191,0,0,0-3.7-3.149c-2.277-.49-4.064-.1-5.362,1.1a6.932,6.932,0,0,0-1.445,8.323c1.469,2.864,3.05,4.965,10.494,10.582,7.448-5.617,9.047-7.718,10.516-10.582" transform="translate(-127.114 -247.652)" fill="#d61c26"></path><path id="Path_907" data-name="Path 907" d="M180.2,269.621h-3.825a.386.386,0,0,0-.386.385v.617a25.081,25.081,0,1,1-25.081-25.082h.617a.385.385,0,0,0,.385-.385v-3.825a.386.386,0,0,0-.385-.385h-.784v0a29.675,29.675,0,1,0,29.844,29.673v-.617a.386.386,0,0,0-.385-.385" transform="translate(-121.23 -240.946)" fill="#d61c26"></path></g></g><g id="Group_1051" data-name="Group 1051" transform="translate(129.862 249.577)"><path id="Path_908" data-name="Path 908" d="M132.614,273.374v.616a.386.386,0,0,0,.385.386h3.825a.386.386,0,0,0,.385-.386v-.616a16.45,16.45,0,1,1,16.45,16.449h-.617a.385.385,0,0,0-.385.385v3.825a.385.385,0,0,0,.385.385h.617a21.045,21.045,0,1,0-21.045-21.044" transform="translate(-132.614 -252.329)" fill="#d61c26"></path></g></g><g id="Group_1407" data-name="Group 1407" transform="translate(0 28.923)"><g id="Group_1049-2" data-name="Group 1049" clip-path="url(#clip-path)"><path id="Path_906-2" data-name="Path 906" d="M167.372,278.315a6.933,6.933,0,0,0-1.447-8.323c-1.3-1.2-3.085-1.593-5.362-1.1a6.191,6.191,0,0,0-3.7,3.149,6.191,6.191,0,0,0-3.7-3.149c-2.277-.49-4.064-.1-5.362,1.1a6.932,6.932,0,0,0-1.445,8.323c1.469,2.864,3.05,4.965,10.494,10.582,7.448-5.617,9.047-7.718,10.516-10.582" transform="translate(-127.114 -247.652)" fill="#d61c26"></path><path id="Path_907-2" data-name="Path 907" d="M180.2,269.621h-3.825a.386.386,0,0,0-.386.385v.617a25.081,25.081,0,1,1-25.081-25.082h.617a.385.385,0,0,0,.385-.385v-3.825a.386.386,0,0,0-.385-.385h-.784v0a29.675,29.675,0,1,0,29.844,29.673v-.617a.386.386,0,0,0-.385-.385" transform="translate(-121.23 -240.946)" fill="#d61c26"></path></g></g></g></svg> 