<svg width="256" height="256" viewBox="0 0 256 256" fill="none" xmlns="http://www.w3.org/2000/svg">
<path d="M120 96C115.253 96 110.613 94.5924 106.666 91.9553C102.72 89.3181 99.6434 85.5698 97.8269 81.1844C96.0104 76.799 95.5351 71.9734 96.4612 67.3178C97.3872 62.6623 99.673 58.3859 103.029 55.0294C106.386 51.673 110.662 49.3872 115.318 48.4612C119.973 47.5351 124.799 48.0104 129.184 49.8269C133.57 51.6434 137.318 54.7195 139.955 58.6663C142.592 62.6131 144 67.2533 144 72C144 78.3652 141.471 84.4697 136.971 88.9706C132.47 93.4714 126.365 96 120 96ZM208 80C203.253 80 198.613 81.4076 194.666 84.0447C190.72 86.6819 187.643 90.4302 185.827 94.8156C184.01 99.201 183.535 104.027 184.461 108.682C185.387 113.338 187.673 117.614 191.029 120.971C194.386 124.327 198.662 126.613 203.318 127.539C207.973 128.465 212.799 127.99 217.184 126.173C221.57 124.357 225.318 121.28 227.955 117.334C230.592 113.387 232 108.747 232 104C232 97.6348 229.471 91.5303 224.971 87.0294C220.47 82.5286 214.365 80 208 80ZM152 160C147.253 160 142.613 161.408 138.666 164.045C134.72 166.682 131.643 170.43 129.827 174.816C128.01 179.201 127.535 184.027 128.461 188.682C129.387 193.338 131.673 197.614 135.029 200.971C138.386 204.327 142.662 206.613 147.318 207.539C151.973 208.465 156.799 207.99 161.184 206.173C165.57 204.357 169.318 201.28 171.955 197.334C174.592 193.387 176 188.747 176 184C176 177.635 173.471 171.53 168.971 167.029C164.47 162.529 158.365 160 152 160Z" fill="#F5B230"/>
<path d="M184 184C184 192.487 180.629 200.626 174.627 206.627C168.626 212.629 160.487 216 152 216C138.3 216 125.05 207.07 120.5 194.78C119.808 192.801 119.92 190.63 120.812 188.733C121.704 186.836 123.305 185.365 125.271 184.637C127.236 183.908 129.409 183.98 131.322 184.837C133.235 185.694 134.735 187.268 135.5 189.22C137.74 195.27 145 200 152 200C156.243 200 160.313 198.314 163.314 195.314C166.314 192.313 168 188.243 168 184C168 179.757 166.314 175.687 163.314 172.686C160.313 169.686 156.243 168 152 168H40C37.8783 168 35.8434 167.157 34.3431 165.657C32.8429 164.157 32 162.122 32 160C32 157.878 32.8429 155.843 34.3431 154.343C35.8434 152.843 37.8783 152 40 152H152C160.487 152 168.626 155.371 174.627 161.373C180.629 167.374 184 175.513 184 184ZM120 104C128.487 104 136.626 100.629 142.627 94.6274C148.629 88.6263 152 80.4869 152 72C152 63.5131 148.629 55.3737 142.627 49.3726C136.626 43.3714 128.487 40 120 40C106.3 40 93.05 48.93 88.5 61.22C87.8077 63.1986 87.9196 65.37 88.8118 67.2669C89.7039 69.1639 91.305 70.6349 93.2706 71.3635C95.2362 72.092 97.4092 72.02 99.3223 71.1628C101.235 70.3057 102.735 68.7319 103.5 66.78C105.74 60.73 113 56 120 56C124.243 56 128.313 57.6857 131.314 60.6863C134.314 63.6869 136 67.7565 136 72C136 76.2435 134.314 80.3131 131.314 83.3137C128.313 86.3143 124.243 88 120 88H24C21.8783 88 19.8434 88.8429 18.3431 90.3431C16.8429 91.8434 16 93.8783 16 96C16 98.1217 16.8429 100.157 18.3431 101.657C19.8434 103.157 21.8783 104 24 104H120ZM208 72C194.3 72 181.05 80.93 176.5 93.22C175.808 95.1986 175.92 97.37 176.812 99.2669C177.704 101.164 179.305 102.635 181.271 103.363C183.236 104.092 185.409 104.02 187.322 103.163C189.235 102.306 190.735 100.732 191.5 98.78C193.74 92.73 201 88 208 88C212.243 88 216.313 89.6857 219.314 92.6863C222.314 95.6869 224 99.7565 224 104C224 108.243 222.314 112.313 219.314 115.314C216.313 118.314 212.243 120 208 120H32C29.8783 120 27.8434 120.843 26.3431 122.343C24.8429 123.843 24 125.878 24 128C24 130.122 24.8429 132.157 26.3431 133.657C27.8434 135.157 29.8783 136 32 136H208C216.487 136 224.626 132.629 230.627 126.627C236.629 120.626 240 112.487 240 104C240 95.5131 236.629 87.3737 230.627 81.3726C224.626 75.3714 216.487 72 208 72Z" fill="#3BC3C4"/>
</svg>
